<svg xmlns="http://www.w3.org/2000/svg" xmlns:xlink="http://www.w3.org/1999/xlink" xmlns:fi="http://pattern.flaticon.com/" x="0" y="0" width="2160" height="1080" viewBox="0 0 2160 1080"><rect x="0px" y="0px" width="100%" height="100%" opacity="1" fill="#707676"/><defs><g transform="matrix(0.12780484222484556 0.048358589891031 -0.048358589891031 0.12780484222484556 331.5287449912836 309.0420006919542)" id="L1_12"><path d="M125,450h75.543c-9.891-9.502-16.2-22.722-16.516-37.327l-0.491-22.672L147.5,390   c-4.142,0-7.5-3.358-7.5-7.5s3.358-7.5,7.5-7.5l35.71,0.001L182.668,350H125c-27.57,0-50,22.43-50,50S97.43,450,125,450z" fill="#3b913e"/><path d="M180.616,255.317l-3.627-167.335c-1.216-2.703-2.146-5.524-2.726-8.428l-8.233-41.166   c-0.605-3.025-0.822-6.005-0.676-8.895C134.123,51.104,115,86.711,115,126.006C115,174.139,143.024,228.139,180.616,255.317z" fill="#fecc33"/><path d="M299.647,29.492c0.146,2.89-0.071,5.87-0.676,8.895l-8.233,41.166   c-0.581,2.904-1.511,5.725-2.726,8.428l-3.627,167.336C321.977,228.14,350,174.139,350,126.006   C350,86.712,330.878,51.104,299.647,29.492z" fill="#fecc33"/><path d="M340,350h-57.668l-0.383,17.665c-0.042,1.956,0.682,3.797,2.039,5.184s3.182,2.15,5.138,2.15H317.5   c4.142,0,7.5,3.357,7.5,7.5s-3.358,7.5-7.5,7.5h-28.375c-6.024,0-11.656-2.365-15.858-6.659c-4.203-4.295-6.445-9.977-6.314-15.999   l0.071-3.273l5.583-257.539C265.238,111.805,256.425,115,247.5,115h-30c-8.925,0-17.738-3.195-25.106-8.471l6.629,305.82   c0.434,20.021,16.504,36.438,36.274,37.582c0.73,0.042,1.464,0.069,2.203,0.069H340c27.57,0,50-22.43,50-50S367.57,350,340,350z" fill="#4fc153"/><path d="M197.5,15c-5.691,0-10.542,2.094-13.659,5.896s-4.219,8.97-3.103,14.55l8.233,41.166   C191.507,89.29,204.571,100,217.5,100h30c12.929,0,25.993-10.71,28.529-23.388l8.233-41.166c1.116-5.58,0.014-10.747-3.103-14.55   S273.191,15,267.5,15H197.5z M197.197,52.196c2.929-2.928,7.678-2.928,10.606,0l10,10c2.929,2.93,2.929,7.678,0,10.607   C216.339,74.268,214.419,75,212.5,75s-3.839-0.732-5.303-2.196l-10-10C194.268,59.874,194.268,55.126,197.197,52.196z    M267.803,62.804l-10,10C256.339,74.268,254.419,75,252.5,75s-3.839-0.732-5.303-2.196c-2.929-2.93-2.929-7.678,0-10.607l10-10   c2.929-2.928,7.678-2.928,10.606,0C270.732,55.126,270.732,59.874,267.803,62.804z" fill="#4fc153"/><path d="M340,335h-57.343l1.332-61.462c22.229-13.29,42.475-35.134,57.346-61.985C356.596,183.997,365,153.616,365,126.006   c0-27.074-8.112-53.111-23.46-75.297c-14.846-21.462-35.419-37.909-59.52-47.625C277.666,1.065,272.755,0,267.5,0h-70   c-5.256,0-10.168,1.066-14.523,3.085c-24.099,9.716-44.671,26.163-59.516,47.622C108.113,72.894,100,98.932,100,126.006   c0,27.609,8.404,57.989,23.663,85.544c14.871,26.852,35.118,48.697,57.348,61.988L182.343,335H125c-35.841,0-65,29.159-65,65   s29.159,65,65,65h215c35.841,0,65-29.159,65-65S375.841,335,340,335z M340,450H237.5c-0.74,0-1.473-0.027-2.203-0.069   c-19.77-1.144-35.84-17.561-36.274-37.582l-6.629-305.82c7.368,5.276,16.181,8.471,25.106,8.471h30   c8.925,0,17.738-3.195,25.106-8.471l-5.583,257.539l-0.071,3.273c-0.131,6.022,2.112,11.704,6.314,15.999   c4.202,4.294,9.834,6.659,15.858,6.659H317.5c4.142,0,7.5-3.357,7.5-7.5s-3.358-7.5-7.5-7.5h-28.375   c-1.956,0-3.781-0.764-5.138-2.15s-2.081-3.228-2.039-5.184L282.332,350H340c27.57,0,50,22.43,50,50S367.57,450,340,450z M125,350   h57.668l0.542,25.001L147.5,375c-4.142,0-7.5,3.358-7.5,7.5s3.358,7.5,7.5,7.5l36.035,0.001l0.491,22.672   c0.316,14.605,6.626,27.825,16.516,37.327H125c-27.57,0-50-22.43-50-50S97.43,350,125,350z M284.384,255.317l3.627-167.336   c1.216-2.703,2.146-5.524,2.726-8.428l8.233-41.166c0.605-3.025,0.822-6.005,0.676-8.895C330.878,51.104,350,86.712,350,126.006   C350,174.139,321.977,228.14,284.384,255.317z M281.159,20.896c3.117,3.803,4.219,8.97,3.103,14.55l-8.233,41.166   C273.493,89.29,260.429,100,247.5,100h-30c-12.929,0-25.993-10.71-28.529-23.388l-8.233-41.166   c-1.116-5.58-0.014-10.747,3.103-14.55S191.809,15,197.5,15h70C273.191,15,278.042,17.094,281.159,20.896z M165.353,29.493   c-0.146,2.89,0.071,5.87,0.676,8.895l8.233,41.166c0.581,2.904,1.511,5.725,2.726,8.428l3.627,167.335   C143.024,228.139,115,174.139,115,126.006C115,86.711,134.123,51.104,165.353,29.493z"/><path d="M207.197,72.804C208.661,74.268,210.581,75,212.5,75s3.839-0.732,5.303-2.196c2.929-2.93,2.929-7.678,0-10.607l-10-10   c-2.929-2.928-7.678-2.928-10.606,0c-2.929,2.93-2.929,7.678,0,10.607L207.197,72.804z"/><path d="M257.197,52.196l-10,10c-2.929,2.93-2.929,7.678,0,10.607C248.661,74.268,250.581,75,252.5,75s3.839-0.732,5.303-2.196   l10-10c2.929-2.93,2.929-7.678,0-10.607C264.875,49.269,260.125,49.269,257.197,52.196z"/></g><g transform="matrix(0.09075616786880461 0.04537808562807342 -0.04537808562807342 0.09075616786880461 164.44959586971677 143.34878605266263)" id="L1_13"><path d="M257.776,402.23c-4.166,3.115-8.328,6.045-12.333,8.86c-0.101,0.071-0.197,0.139-0.298,0.21   c12.662,10.116,23.088,21.561,25.447,38.7h15.121C283.408,427.837,270.995,413.374,257.776,402.23z" fill="#e43017"/><path d="M207.223,383.139c4.166-3.115,8.329-6.045,12.334-8.861c0.101-0.071,0.196-0.139,0.296-0.209   c-14.423-11.523-25.944-24.773-25.944-46.2c0-28.513,19.883-42.493,42.906-58.681c5.468-3.845,10.976-7.722,16.23-11.834   c0.082-0.07,0.167-0.133,0.252-0.199c17.914-14.068,32.797-30.943,32.797-58.922c0-26.483-13.663-42.92-28.319-55.275   c-4.165,3.115-8.328,6.045-12.333,8.861c-0.101,0.071-0.196,0.139-0.297,0.209c14.424,11.524,25.945,24.775,25.945,46.205   c0,28.514-19.883,42.494-42.906,58.681c-5.516,3.878-11.072,7.79-16.368,11.942c-0.06,0.049-0.121,0.097-0.182,0.144   c-17.884,14.056-32.73,30.924-32.73,58.868C178.906,354.351,192.569,370.785,207.223,383.139z" fill="#e43017"/><path d="M253.502,386.627c17.823-14.035,32.592-30.887,32.592-58.758c0-26.482-13.663-42.918-28.317-55.271   c-4.165,3.115-8.328,6.045-12.332,8.86c-0.101,0.071-0.197,0.139-0.297,0.21c14.423,11.523,25.943,24.774,25.943,46.202   c0,28.513-19.883,42.492-42.906,58.679c-5.499,3.866-11.038,7.764-16.319,11.901c-0.109,0.091-0.222,0.176-0.335,0.26   c-16.181,12.735-29.85,27.789-32.251,51.291h15.119c3.189-23.597,21.508-36.479,42.416-51.179   c5.456-3.836,10.95-7.703,16.194-11.805C253.168,386.878,253.333,386.75,253.502,386.627z" fill="#ff9926"/><path d="M207.223,253.507c4.166-3.115,8.33-6.046,12.335-8.862c0.1-0.07,0.195-0.138,0.295-0.208   c-14.424-11.523-25.945-24.774-25.945-46.203c0-28.515,19.883-42.495,42.906-58.684c5.46-3.839,10.96-7.711,16.208-11.816   c0.129-0.111,0.263-0.213,0.398-0.314c17.859-14.049,32.673-30.911,32.673-58.826c0-29.55-24.039-53.591-53.589-53.594v15.003   c21.277,0.003,38.586,17.313,38.586,38.591c0,28.516-19.884,42.497-42.907,58.684c-5.454,3.835-10.947,7.702-16.189,11.802   c-0.162,0.141-0.33,0.271-0.501,0.396c-17.821,14.036-32.589,30.888-32.589,58.759   C178.905,224.718,192.568,241.153,207.223,253.507z" fill="#ff9926"/><path d="M232.5,15c-29.552,0-53.594,24.042-53.594,53.594c0,26.483,13.662,42.92,28.317,55.275   c4.164-3.114,8.326-6.044,12.33-8.859c0.101-0.071,0.2-0.14,0.3-0.211c-14.424-11.524-25.944-24.775-25.944-46.205   c0-21.279,17.312-38.591,38.591-38.591c0.002,0,0.003,0,0.005,0V15C232.503,15,232.502,15,232.5,15z" fill="#e43017"/><path d="M269.652,392.663c17.034-14.999,31.442-34.666,31.442-64.794c0-31.143-15.58-50.925-31.442-64.838   c17.035-15,31.443-34.669,31.443-64.797c0-31.144-15.58-50.928-31.444-64.841c17.035-15.001,31.443-34.67,31.443-64.799   C301.094,30.771,270.322,0,232.5,0c-37.823,0-68.594,30.771-68.594,68.594c0,31.143,15.58,50.927,31.443,64.841   c-17.035,15.001-31.444,34.67-31.444,64.8c0,31.144,15.58,50.926,31.443,64.839c-17.034,15-31.442,34.668-31.442,64.796   c0,31.142,15.58,50.924,31.442,64.836c-17.035,15-31.443,34.667-31.443,64.795c0,4.142,3.358,7.5,7.5,7.5h30.003   c4.142,0,7.5-3.358,7.5-7.5c0-15.207,7.316-24.519,23.614-37.012c15.945,12.161,23.57,21.503,23.57,37.012   c0,4.142,3.357,7.5,7.5,7.5h30.003c4.143,0,7.5-3.358,7.5-7.5C301.095,426.358,285.515,406.576,269.652,392.663z M178.905,198.234   c0-27.87,14.767-44.723,32.589-58.759c0.171-0.125,0.339-0.255,0.501-0.396c5.242-4.1,10.735-7.967,16.189-11.802   c23.023-16.188,42.907-30.168,42.907-58.684c0-21.277-17.309-38.588-38.586-38.591c-0.002,0-0.003,0-0.005,0   c-21.279,0-38.591,17.312-38.591,38.591c0,21.429,11.521,34.681,25.944,46.205c-0.101,0.071-0.199,0.14-0.3,0.211   c-4.004,2.815-8.165,5.745-12.33,8.859c-14.655-12.355-28.317-28.791-28.317-55.275C178.906,39.042,202.948,15,232.5,15   c0.002,0,0.003,0,0.005,0c29.55,0.003,53.589,24.043,53.589,53.594c0,27.915-14.814,44.778-32.673,58.826   c-0.135,0.101-0.269,0.203-0.398,0.314c-5.248,4.106-10.747,7.977-16.208,11.816c-23.023,16.188-42.906,30.169-42.906,58.684   c0,21.429,11.521,34.679,25.945,46.203c-0.1,0.07-0.195,0.138-0.295,0.208c-4.005,2.816-8.169,5.747-12.335,8.862   C192.568,241.153,178.905,224.718,178.905,198.234z M208.909,68.594c0-13.008,10.583-23.591,23.591-23.591   s23.591,10.583,23.591,23.591c0,15.21-7.314,24.523-23.615,37.018C216.529,93.448,208.909,84.108,208.909,68.594z M256.092,198.234   c0,15.208-7.316,24.521-23.614,37.014c-15.944-12.161-23.569-21.502-23.569-37.014c0-15.21,7.316-24.522,23.615-37.016   C248.467,173.38,256.092,182.721,256.092,198.234z M178.906,327.869c0-27.944,14.846-44.811,32.73-58.868   c0.061-0.047,0.122-0.094,0.182-0.144c5.296-4.152,10.852-8.064,16.368-11.942c23.023-16.188,42.906-30.167,42.906-58.681   c0-21.43-11.521-34.681-25.945-46.205c0.1-0.07,0.196-0.139,0.297-0.209c4.005-2.816,8.167-5.746,12.333-8.861   c14.655,12.355,28.319,28.792,28.319,55.275c0,27.979-14.883,44.854-32.797,58.922c-0.084,0.066-0.17,0.129-0.252,0.199   c-5.255,4.112-10.762,7.989-16.23,11.834c-23.023,16.188-42.906,30.167-42.906,58.681c0,21.426,11.521,34.677,25.944,46.2   c-0.1,0.07-0.196,0.138-0.296,0.209c-4.005,2.816-8.168,5.746-12.334,8.861C192.569,370.785,178.906,354.351,178.906,327.869z    M256.091,327.869c0,15.207-7.315,24.519-23.613,37.011c-15.944-12.161-23.569-21.501-23.569-37.011   c0-15.208,7.316-24.52,23.613-37.013C248.466,303.017,256.091,312.358,256.091,327.869z M236.814,398.821   c-20.908,14.7-39.227,27.583-42.416,51.179h-15.119c2.401-23.502,16.07-38.556,32.251-51.291c0.114-0.084,0.226-0.169,0.335-0.26   c5.281-4.137,10.82-8.035,16.319-11.901c23.023-16.187,42.906-30.166,42.906-58.679c0-21.428-11.52-34.678-25.943-46.202   c0.1-0.071,0.196-0.139,0.297-0.21c4.005-2.816,8.167-5.746,12.332-8.86c14.654,12.354,28.317,28.789,28.317,55.271   c0,27.871-14.77,44.723-32.592,58.758c-0.168,0.123-0.334,0.251-0.493,0.389C247.765,391.117,242.27,394.985,236.814,398.821z    M270.592,450c-2.359-17.139-12.785-28.584-25.447-38.7c0.101-0.071,0.197-0.139,0.298-0.21c4.005-2.816,8.168-5.746,12.333-8.86   c13.22,11.144,25.632,25.607,27.937,47.77H270.592z"/></g><g transform="matrix(0.04785623973428591 -0.04785623973428591 0.04785623973428591 0.04785623973428591 327.7468511064003 174.99997589315396)" id="L1_14"><path d="M278.952,423.471l-96.715-32.399l4.207,35.758C187.921,439.389,199.854,450,212.5,450h40   c12.646,0,24.579-10.611,26.057-23.171L278.952,423.471z" fill="#fecc33"/><path d="M230.214,273.143c-0.001,0-0.001-0.001-0.001-0.001l-12.591-4.218   c-3.928-1.315-6.045-5.566-4.729-9.494c1.315-3.927,5.564-6.044,9.494-4.729l10.115,3.388l68.613-22.985l6.268-53.281   l-144.083,48.268l0.59,5.013l29.775,9.974c3.928,1.315,6.045,5.566,4.729,9.493c-1.051,3.138-3.975,5.12-7.111,5.12   c-0.79,0-1.593-0.126-2.383-0.391l-23.073-7.729l6.268,53.281l60.407,20.236l33.686-11.285c3.931-1.316,8.179,0.802,9.494,4.729   c1.316,3.928-0.802,8.179-4.729,9.494l-92.487,30.983l1.834,15.592l52.201,17.487l52.201-17.488l9.418-80.051L230.214,273.143z" fill="#fecc33"/><path d="M191.281,125.693c-0.79,0-1.593-0.126-2.383-0.391l-26.569-8.901   c-6.265,8.773-10,20.452-8.875,30.017l2.228,18.938l76.819,25.734l76.389-25.59l-91.269-30.575   c-3.928-1.315-6.045-5.566-4.729-9.494c1.316-3.927,5.564-6.045,9.494-4.729l10.115,3.388l57.481-19.256l-20.038-13.36   c-1.656-1.104-2.806-2.821-3.195-4.772c-0.389-1.952,0.014-3.979,1.119-5.634c4.449-6.66,6.893-14.379,7.112-22.389L198.34,84.353   c0.092,0.776,0.068,1.568-0.087,2.348c-0.389,1.952-1.539,3.67-3.195,4.773l-20.039,13.36l18.643,6.245   c3.928,1.315,6.045,5.566,4.729,9.493C197.341,123.711,194.417,125.693,191.281,125.693z" fill="#fecc33"/><path d="M232.5,57.09l40.165-13.456C266.903,26.99,251.08,15,232.5,15c-18.58,0-34.403,11.99-40.165,28.635   L232.5,57.09z" fill="#fecc33"/><path d="M282.764,391.071 256.11,400 280.742,408.251z" fill="#fecc33"/><path d="M256.111,132l54.966,18.414l0.47-3.995c1.125-9.565-2.611-21.244-8.876-30.017L256.111,132z" fill="#fecc33"/><path d="M208.89,65l-18.869-6.321c0.112,4.096,0.808,8.114,2.056,11.954L208.89,65z" fill="#fecc33"/><path d="M299.176,251.573 256.111,266 295.91,279.333z" fill="#fecc33"/><path d="M174.031,321.323 176.674,343.793 208.89,333z" fill="#fecc33"/><path d="M208.89,199 157.62,181.825 161.508,214.874z" fill="#fecc33"/><path d="M301.698,94.619l-17.598-11.732C287.977,75.027,290,66.378,290,57.5c0-3.342-0.303-6.613-0.853-9.8   c-0.035-0.317-0.093-0.634-0.17-0.951C283.927,20.166,260.531,0,232.5,0c-28.031,0-51.427,20.166-56.477,46.75   c-0.077,0.316-0.135,0.633-0.17,0.949C175.303,50.886,175,54.158,175,57.5c0,8.878,2.023,17.527,5.899,25.387l-17.598,11.732   c-16.143,10.762-27.012,34.284-24.745,53.552l9.131,77.617c0.002,0.018,0.004,0.036,0.006,0.055l15.162,128.878   c0.001,0.01,0.002,0.02,0.003,0.03l8.686,73.831C173.909,448.663,192.281,465,212.5,465h40c20.22,0,38.591-16.337,40.953-36.419   l1.1-9.346c0.004-0.029,0.007-0.057,0.01-0.086l15.158-128.838c0.003-0.025,0.006-0.049,0.009-0.074l15.159-128.85   c0.003-0.021,0.005-0.041,0.007-0.062l1.547-13.153C328.71,128.902,317.841,105.38,301.698,94.619z M252.5,450h-40   c-12.646,0-24.579-10.611-26.057-23.171l-4.207-35.758l96.715,32.399l-0.395,3.358C277.079,439.389,265.147,450,252.5,450z    M256.11,400l26.653-8.929l-2.021,17.181L256.11,400z M232.5,392.091l-52.201-17.487l-1.834-15.592l92.487-30.983   c3.927-1.315,6.045-5.566,4.729-9.494c-1.315-3.927-5.563-6.045-9.494-4.729l-33.686,11.285l-60.407-20.236l-6.268-53.281   l23.073,7.729c0.791,0.265,1.593,0.391,2.383,0.391c3.136,0,6.06-1.982,7.111-5.12c1.315-3.927-0.802-8.178-4.729-9.493   l-29.775-9.974l-0.59-5.013l144.083-48.268l-6.268,53.281L232.5,258.091l-10.115-3.388c-3.93-1.315-8.178,0.802-9.494,4.729   c-1.316,3.928,0.801,8.179,4.729,9.494l12.591,4.218c0,0,0.001,0.001,0.002,0.001l63.905,21.408l-9.418,80.051L232.5,392.091z    M193.663,111.08l-18.643-6.245l20.039-13.36c1.656-1.104,2.806-2.821,3.195-4.773c0.156-0.78,0.179-1.572,0.087-2.348   l76.638-25.674c-0.219,8.011-2.663,15.729-7.112,22.389c-1.105,1.655-1.508,3.682-1.119,5.634c0.39,1.951,1.539,3.668,3.195,4.772   l20.038,13.36L232.5,124.091l-10.115-3.388c-3.929-1.316-8.178,0.802-9.494,4.729c-1.316,3.928,0.801,8.179,4.729,9.494   L308.89,165.5l-76.389,25.59l-76.819-25.734l-2.228-18.938c-1.126-9.565,2.609-21.244,8.875-30.017l26.569,8.901   c0.791,0.265,1.593,0.391,2.383,0.391c3.136,0,6.06-1.982,7.11-5.12C199.708,116.646,197.59,112.396,193.663,111.08z M232.5,15   c18.58,0,34.403,11.99,40.165,28.635L232.5,57.09l-40.165-13.456C198.097,26.99,213.92,15,232.5,15z M208.89,65l-16.813,5.632   c-1.247-3.84-1.944-7.858-2.056-11.954L208.89,65z M208.89,199l-47.383,15.873l-3.888-33.049L208.89,199z M174.031,321.323   L208.89,333l-32.216,10.792L174.031,321.323z M299.176,251.573l-3.266,27.759L256.111,266L299.176,251.573z M311.547,146.419   l-0.47,3.995L256.111,132l46.561-15.598C308.936,125.175,312.672,136.854,311.547,146.419z"/></g><g transform="matrix(-0.12903225421905518 0 0 0.12903225421905518 117.49999821186066 57.5)" id="L1_15"><path d="M125,450h75.543c-9.891-9.502-16.2-22.722-16.516-37.327l-0.491-22.672L147.5,390   c-4.142,0-7.5-3.358-7.5-7.5s3.358-7.5,7.5-7.5l35.71,0.001L182.668,350H125c-27.57,0-50,22.43-50,50S97.43,450,125,450z" fill="#3b913e"/><path d="M180.616,255.317l-3.627-167.335c-1.216-2.703-2.146-5.524-2.726-8.428l-8.233-41.166   c-0.605-3.025-0.822-6.005-0.676-8.895C134.123,51.104,115,86.711,115,126.006C115,174.139,143.024,228.139,180.616,255.317z" fill="#fecc33"/><path d="M299.647,29.492c0.146,2.89-0.071,5.87-0.676,8.895l-8.233,41.166   c-0.581,2.904-1.511,5.725-2.726,8.428l-3.627,167.336C321.977,228.14,350,174.139,350,126.006   C350,86.712,330.878,51.104,299.647,29.492z" fill="#fecc33"/><path d="M340,350h-57.668l-0.383,17.665c-0.042,1.956,0.682,3.797,2.039,5.184s3.182,2.15,5.138,2.15H317.5   c4.142,0,7.5,3.357,7.5,7.5s-3.358,7.5-7.5,7.5h-28.375c-6.024,0-11.656-2.365-15.858-6.659c-4.203-4.295-6.445-9.977-6.314-15.999   l0.071-3.273l5.583-257.539C265.238,111.805,256.425,115,247.5,115h-30c-8.925,0-17.738-3.195-25.106-8.471l6.629,305.82   c0.434,20.021,16.504,36.438,36.274,37.582c0.73,0.042,1.464,0.069,2.203,0.069H340c27.57,0,50-22.43,50-50S367.57,350,340,350z" fill="#4fc153"/><path d="M197.5,15c-5.691,0-10.542,2.094-13.659,5.896s-4.219,8.97-3.103,14.55l8.233,41.166   C191.507,89.29,204.571,100,217.5,100h30c12.929,0,25.993-10.71,28.529-23.388l8.233-41.166c1.116-5.58,0.014-10.747-3.103-14.55   S273.191,15,267.5,15H197.5z M197.197,52.196c2.929-2.928,7.678-2.928,10.606,0l10,10c2.929,2.93,2.929,7.678,0,10.607   C216.339,74.268,214.419,75,212.5,75s-3.839-0.732-5.303-2.196l-10-10C194.268,59.874,194.268,55.126,197.197,52.196z    M267.803,62.804l-10,10C256.339,74.268,254.419,75,252.5,75s-3.839-0.732-5.303-2.196c-2.929-2.93-2.929-7.678,0-10.607l10-10   c2.929-2.928,7.678-2.928,10.606,0C270.732,55.126,270.732,59.874,267.803,62.804z" fill="#4fc153"/><path d="M340,335h-57.343l1.332-61.462c22.229-13.29,42.475-35.134,57.346-61.985C356.596,183.997,365,153.616,365,126.006   c0-27.074-8.112-53.111-23.46-75.297c-14.846-21.462-35.419-37.909-59.52-47.625C277.666,1.065,272.755,0,267.5,0h-70   c-5.256,0-10.168,1.066-14.523,3.085c-24.099,9.716-44.671,26.163-59.516,47.622C108.113,72.894,100,98.932,100,126.006   c0,27.609,8.404,57.989,23.663,85.544c14.871,26.852,35.118,48.697,57.348,61.988L182.343,335H125c-35.841,0-65,29.159-65,65   s29.159,65,65,65h215c35.841,0,65-29.159,65-65S375.841,335,340,335z M340,450H237.5c-0.74,0-1.473-0.027-2.203-0.069   c-19.77-1.144-35.84-17.561-36.274-37.582l-6.629-305.82c7.368,5.276,16.181,8.471,25.106,8.471h30   c8.925,0,17.738-3.195,25.106-8.471l-5.583,257.539l-0.071,3.273c-0.131,6.022,2.112,11.704,6.314,15.999   c4.202,4.294,9.834,6.659,15.858,6.659H317.5c4.142,0,7.5-3.357,7.5-7.5s-3.358-7.5-7.5-7.5h-28.375   c-1.956,0-3.781-0.764-5.138-2.15s-2.081-3.228-2.039-5.184L282.332,350H340c27.57,0,50,22.43,50,50S367.57,450,340,450z M125,350   h57.668l0.542,25.001L147.5,375c-4.142,0-7.5,3.358-7.5,7.5s3.358,7.5,7.5,7.5l36.035,0.001l0.491,22.672   c0.316,14.605,6.626,27.825,16.516,37.327H125c-27.57,0-50-22.43-50-50S97.43,350,125,350z M284.384,255.317l3.627-167.336   c1.216-2.703,2.146-5.524,2.726-8.428l8.233-41.166c0.605-3.025,0.822-6.005,0.676-8.895C330.878,51.104,350,86.712,350,126.006   C350,174.139,321.977,228.14,284.384,255.317z M281.159,20.896c3.117,3.803,4.219,8.97,3.103,14.55l-8.233,41.166   C273.493,89.29,260.429,100,247.5,100h-30c-12.929,0-25.993-10.71-28.529-23.388l-8.233-41.166   c-1.116-5.58-0.014-10.747,3.103-14.55S191.809,15,197.5,15h70C273.191,15,278.042,17.094,281.159,20.896z M165.353,29.493   c-0.146,2.89,0.071,5.87,0.676,8.895l8.233,41.166c0.581,2.904,1.511,5.725,2.726,8.428l3.627,167.335   C143.024,228.139,115,174.139,115,126.006C115,86.711,134.123,51.104,165.353,29.493z"/><path d="M207.197,72.804C208.661,74.268,210.581,75,212.5,75s3.839-0.732,5.303-2.196c2.929-2.93,2.929-7.678,0-10.607l-10-10   c-2.929-2.928-7.678-2.928-10.606,0c-2.929,2.93-2.929,7.678,0,10.607L207.197,72.804z"/><path d="M257.197,52.196l-10,10c-2.929,2.93-2.929,7.678,0,10.607C248.661,74.268,250.581,75,252.5,75s3.839-0.732,5.303-2.196   l10-10c2.929-2.93,2.929-7.678,0-10.607C264.875,49.269,260.125,49.269,257.197,52.196z"/></g><g transform="matrix(-0.10333034649370439 0.031793954402541784 0.031793954402541784 0.10333034649370439 191.6320927567693 231.08361536811685)" id="L1_16"><path d="M278.952,423.471l-96.715-32.399l4.207,35.758C187.921,439.389,199.854,450,212.5,450h40   c12.646,0,24.579-10.611,26.057-23.171L278.952,423.471z" fill="#fecc33"/><path d="M230.214,273.143c-0.001,0-0.001-0.001-0.001-0.001l-12.591-4.218   c-3.928-1.315-6.045-5.566-4.729-9.494c1.315-3.927,5.564-6.044,9.494-4.729l10.115,3.388l68.613-22.985l6.268-53.281   l-144.083,48.268l0.59,5.013l29.775,9.974c3.928,1.315,6.045,5.566,4.729,9.493c-1.051,3.138-3.975,5.12-7.111,5.12   c-0.79,0-1.593-0.126-2.383-0.391l-23.073-7.729l6.268,53.281l60.407,20.236l33.686-11.285c3.931-1.316,8.179,0.802,9.494,4.729   c1.316,3.928-0.802,8.179-4.729,9.494l-92.487,30.983l1.834,15.592l52.201,17.487l52.201-17.488l9.418-80.051L230.214,273.143z" fill="#fecc33"/><path d="M191.281,125.693c-0.79,0-1.593-0.126-2.383-0.391l-26.569-8.901   c-6.265,8.773-10,20.452-8.875,30.017l2.228,18.938l76.819,25.734l76.389-25.59l-91.269-30.575   c-3.928-1.315-6.045-5.566-4.729-9.494c1.316-3.927,5.564-6.045,9.494-4.729l10.115,3.388l57.481-19.256l-20.038-13.36   c-1.656-1.104-2.806-2.821-3.195-4.772c-0.389-1.952,0.014-3.979,1.119-5.634c4.449-6.66,6.893-14.379,7.112-22.389L198.34,84.353   c0.092,0.776,0.068,1.568-0.087,2.348c-0.389,1.952-1.539,3.67-3.195,4.773l-20.039,13.36l18.643,6.245   c3.928,1.315,6.045,5.566,4.729,9.493C197.341,123.711,194.417,125.693,191.281,125.693z" fill="#fecc33"/><path d="M232.5,57.09l40.165-13.456C266.903,26.99,251.08,15,232.5,15c-18.58,0-34.403,11.99-40.165,28.635   L232.5,57.09z" fill="#fecc33"/><path d="M282.764,391.071 256.11,400 280.742,408.251z" fill="#fecc33"/><path d="M256.111,132l54.966,18.414l0.47-3.995c1.125-9.565-2.611-21.244-8.876-30.017L256.111,132z" fill="#fecc33"/><path d="M208.89,65l-18.869-6.321c0.112,4.096,0.808,8.114,2.056,11.954L208.89,65z" fill="#fecc33"/><path d="M299.176,251.573 256.111,266 295.91,279.333z" fill="#fecc33"/><path d="M174.031,321.323 176.674,343.793 208.89,333z" fill="#fecc33"/><path d="M208.89,199 157.62,181.825 161.508,214.874z" fill="#fecc33"/><path d="M301.698,94.619l-17.598-11.732C287.977,75.027,290,66.378,290,57.5c0-3.342-0.303-6.613-0.853-9.8   c-0.035-0.317-0.093-0.634-0.17-0.951C283.927,20.166,260.531,0,232.5,0c-28.031,0-51.427,20.166-56.477,46.75   c-0.077,0.316-0.135,0.633-0.17,0.949C175.303,50.886,175,54.158,175,57.5c0,8.878,2.023,17.527,5.899,25.387l-17.598,11.732   c-16.143,10.762-27.012,34.284-24.745,53.552l9.131,77.617c0.002,0.018,0.004,0.036,0.006,0.055l15.162,128.878   c0.001,0.01,0.002,0.02,0.003,0.03l8.686,73.831C173.909,448.663,192.281,465,212.5,465h40c20.22,0,38.591-16.337,40.953-36.419   l1.1-9.346c0.004-0.029,0.007-0.057,0.01-0.086l15.158-128.838c0.003-0.025,0.006-0.049,0.009-0.074l15.159-128.85   c0.003-0.021,0.005-0.041,0.007-0.062l1.547-13.153C328.71,128.902,317.841,105.38,301.698,94.619z M252.5,450h-40   c-12.646,0-24.579-10.611-26.057-23.171l-4.207-35.758l96.715,32.399l-0.395,3.358C277.079,439.389,265.147,450,252.5,450z    M256.11,400l26.653-8.929l-2.021,17.181L256.11,400z M232.5,392.091l-52.201-17.487l-1.834-15.592l92.487-30.983   c3.927-1.315,6.045-5.566,4.729-9.494c-1.315-3.927-5.563-6.045-9.494-4.729l-33.686,11.285l-60.407-20.236l-6.268-53.281   l23.073,7.729c0.791,0.265,1.593,0.391,2.383,0.391c3.136,0,6.06-1.982,7.111-5.12c1.315-3.927-0.802-8.178-4.729-9.493   l-29.775-9.974l-0.59-5.013l144.083-48.268l-6.268,53.281L232.5,258.091l-10.115-3.388c-3.93-1.315-8.178,0.802-9.494,4.729   c-1.316,3.928,0.801,8.179,4.729,9.494l12.591,4.218c0,0,0.001,0.001,0.002,0.001l63.905,21.408l-9.418,80.051L232.5,392.091z    M193.663,111.08l-18.643-6.245l20.039-13.36c1.656-1.104,2.806-2.821,3.195-4.773c0.156-0.78,0.179-1.572,0.087-2.348   l76.638-25.674c-0.219,8.011-2.663,15.729-7.112,22.389c-1.105,1.655-1.508,3.682-1.119,5.634c0.39,1.951,1.539,3.668,3.195,4.772   l20.038,13.36L232.5,124.091l-10.115-3.388c-3.929-1.316-8.178,0.802-9.494,4.729c-1.316,3.928,0.801,8.179,4.729,9.494   L308.89,165.5l-76.389,25.59l-76.819-25.734l-2.228-18.938c-1.126-9.565,2.609-21.244,8.875-30.017l26.569,8.901   c0.791,0.265,1.593,0.391,2.383,0.391c3.136,0,6.06-1.982,7.11-5.12C199.708,116.646,197.59,112.396,193.663,111.08z M232.5,15   c18.58,0,34.403,11.99,40.165,28.635L232.5,57.09l-40.165-13.456C198.097,26.99,213.92,15,232.5,15z M208.89,65l-16.813,5.632   c-1.247-3.84-1.944-7.858-2.056-11.954L208.89,65z M208.89,199l-47.383,15.873l-3.888-33.049L208.89,199z M174.031,321.323   L208.89,333l-32.216,10.792L174.031,321.323z M299.176,251.573l-3.266,27.759L256.111,266L299.176,251.573z M311.547,146.419   l-0.47,3.995L256.111,132l46.561-15.598C308.936,125.175,312.672,136.854,311.547,146.419z"/></g><g transform="matrix(0.08602150529623032 0 0 0.08602150529623032 242.5 67.5)" id="L1_17"><path d="M425.989,199.516H415c-4.142,0-7.5-3.357-7.5-7.5s3.358-7.5,7.5-7.5h16.511   c0.066-0.002,0.131,0,0.196,0h16.927c-3.039-8.038-10.813-13.769-19.902-13.769H400c-14.907,0-27.5,19.463-27.5,42.5   c0,16.79,6.559,32.092,16.71,38.98c2.057,1.396,3.289,3.72,3.289,6.206l0.001,22.816c0,23.435-19.065,42.5-42.5,42.5   s-42.5-19.065-42.5-42.5V247.5c0-66.857-54.393-121.25-121.25-121.25S65,180.643,65,247.5v33.75c0,23.435-19.065,42.5-42.5,42.5   c-4.136,0-7.5,3.364-7.5,7.5s3.364,7.5,7.5,7.5c31.706,0,57.5-25.794,57.5-57.5V247.5c0-58.587,47.664-106.25,106.25-106.25   S292.5,188.913,292.5,247.5v33.75c0,31.706,25.794,57.5,57.5,57.5s57.5-25.794,57.5-57.5v-22.814c0-2.485,1.231-4.81,3.288-6.206   c10.152-6.89,16.712-22.191,16.712-38.982C427.5,208.509,426.987,203.913,425.989,199.516z" fill="#fecc33"/><path d="M186.25,156.25c-50.315,0-91.25,40.935-91.25,91.25s40.935,91.25,91.25,91.25   s91.25-40.935,91.25-91.25S236.565,156.25,186.25,156.25z M186.25,262.5c-8.271,0-15-6.729-15-15s6.729-15,15-15s15,6.729,15,15   S194.521,262.5,186.25,262.5z" fill="#e43017"/><path d="M428.732,155.747H400c-11.867,0-22.838,6.337-30.893,17.844c-7.485,10.693-11.607,24.776-11.607,39.656   c0,20.225,7.574,38.53,19.999,48.91l0.001,19.093c0,15.163-12.336,27.5-27.5,27.5s-27.5-12.337-27.5-27.5V247.5   c0-75.129-61.122-136.25-136.25-136.25S50,172.371,50,247.5v33.75c0,15.163-12.336,27.5-27.5,27.5c-12.407,0-22.5,10.094-22.5,22.5   s10.093,22.5,22.5,22.5c34.102,0,62.763-23.674,70.455-55.446c18.046,33.008,53.099,55.446,93.295,55.446   s75.249-22.438,93.295-55.446c7.692,31.772,36.353,55.446,70.455,55.446c39.977,0,72.5-32.523,72.5-72.5v-19.091   c12.426-10.381,20-28.688,20-48.912c0-4.686-0.416-9.273-1.214-13.731H457.5c4.142,0,7.5-3.357,7.5-7.5   C465,172.017,448.73,155.747,428.732,155.747z M410.788,252.229c-2.057,1.396-3.288,3.721-3.288,6.206v22.814   c0,31.706-25.794,57.5-57.5,57.5s-57.5-25.794-57.5-57.5V247.5c0-58.587-47.664-106.25-106.25-106.25S80,188.913,80,247.5v33.75   c0,31.706-25.794,57.5-57.5,57.5c-4.136,0-7.5-3.364-7.5-7.5s3.364-7.5,7.5-7.5c23.435,0,42.5-19.065,42.5-42.5V247.5   c0-66.857,54.393-121.25,121.25-121.25S307.5,180.643,307.5,247.5v33.75c0,23.435,19.065,42.5,42.5,42.5s42.5-19.065,42.5-42.5   l-0.001-22.816c0-2.486-1.231-4.81-3.289-6.206c-10.151-6.889-16.71-22.19-16.71-38.98c0-23.037,12.593-42.5,27.5-42.5h28.732   c9.089,0,16.864,5.73,19.902,13.769h-16.927c-0.065,0-0.131-0.002-0.196,0H415c-4.142,0-7.5,3.357-7.5,7.5s3.358,7.5,7.5,7.5   h10.989c0.998,4.397,1.511,8.993,1.511,13.731C427.5,230.038,420.94,245.34,410.788,252.229z M186.25,338.75   c-50.315,0-91.25-40.935-91.25-91.25s40.935-91.25,91.25-91.25s91.25,40.935,91.25,91.25S236.565,338.75,186.25,338.75z"/><path d="M186.25,232.5c-8.271,0-15,6.729-15,15s6.729,15,15,15s15-6.729,15-15S194.521,232.5,186.25,232.5z"/></g><g transform="matrix(0.12910677435120477 0.015369854517972969 -0.015369854517972969 0.12910677435120477 212.55614976602965 -32.59081520398888)" id="L1_18"><path d="M282.841,283.166h28.249l0,0c0-4.143,3.357-7.5,7.5-7.5s7.5,3.357,7.5,7.5l0,0h19.728l0,0   c0-4.143,3.357-7.5,7.5-7.5s7.5,3.357,7.5,7.5l0,0h19.728l0,0c0-4.143,3.357-7.5,7.5-7.5s7.5,3.357,7.5,7.5l0,0h19.727l0,0   c0-4.143,3.357-7.5,7.5-7.5s7.5,3.357,7.5,7.5l0,0H450v-41.867H273.271L282.841,283.166z" fill="#fecc33"/><path d="M191.728,241.299H15v41.867h19.727l0,0c0-4.143,3.358-7.5,7.5-7.5s7.5,3.357,7.5,7.5l0,0h19.728l0,0   c0-4.143,3.358-7.5,7.5-7.5c4.142,0,7.5,3.357,7.5,7.5l0,0h19.727l0,0c0-4.143,3.358-7.5,7.5-7.5s7.5,3.357,7.5,7.5l0,0h19.728l0,0   c0-4.143,3.358-7.5,7.5-7.5s7.5,3.357,7.5,7.5l0,0h28.249L191.728,241.299z" fill="#fecc33"/><rect x="84px" y="283px" width="19px" height="41px" fill="#ff9926"/><rect x="49px" y="283px" width="19px" height="41px" fill="#ff9926"/><rect x="15px" y="283px" width="19px" height="41px" fill="#ff9926"/><path d="M292.412,325.033 311.091,325.033 311.091,283.166 282.841,283.166z" fill="#ff9926"/><path d="M153.909,283.166 153.909,325.033 172.588,325.033 182.158,283.166z" fill="#ff9926"/><rect x="119px" y="283px" width="19px" height="41px" fill="#ff9926"/><rect x="326px" y="283px" width="19px" height="41px" fill="#ff9926"/><rect x="360px" y="283px" width="19px" height="41px" fill="#ff9926"/><rect x="395px" y="283px" width="19px" height="41px" fill="#ff9926"/><rect x="430px" y="283px" width="19px" height="41px" fill="#ff9926"/><path d="M228.5,23.968 139.416,127.565 317.585,127.565z" fill="#fecc33"/><path d="M203.636,165.065c0-4.143,3.358-7.5,7.5-7.5h42.727c4.143,0,7.5,3.357,7.5,7.5v61.233h153.909   v-83.733H49.727v83.733h153.909V165.065z M288.591,191.616h99.455c4.143,0,7.5,3.357,7.5,7.5s-3.357,7.5-7.5,7.5h-99.455   c-4.143,0-7.5-3.357-7.5-7.5S284.448,191.616,288.591,191.616z M176.409,206.616H76.955c-4.142,0-7.5-3.357-7.5-7.5   s3.358-7.5,7.5-7.5h99.455c4.142,0,7.5,3.357,7.5,7.5S180.551,206.616,176.409,206.616z" fill="#ff9926"/><rect x="218px" y="172px" width="27px" height="53px" fill="#e43017"/><path d="M257.884,241.299 207.115,241.299 158.83,452.533 306.17,452.533z" fill="#fecc33"/><path d="M176.409,191.616H76.955c-4.142,0-7.5,3.357-7.5,7.5s3.358,7.5,7.5,7.5h99.455c4.142,0,7.5-3.357,7.5-7.5   S180.551,191.616,176.409,191.616z"/><path d="M288.591,206.616h99.455c4.143,0,7.5-3.357,7.5-7.5s-3.357-7.5-7.5-7.5h-99.455c-4.143,0-7.5,3.357-7.5,7.5   S284.448,206.616,288.591,206.616z"/><path d="M457.5,226.299h-27.228v-91.233c0-4.143-3.357-7.5-7.5-7.5h-85.405L234.187,7.575c-1.425-1.657-3.501-2.61-5.687-2.61   c-2.186,0-4.262,0.953-5.687,2.61l-103.18,119.99H42.227c-4.142,0-7.5,3.357-7.5,7.5v91.233H7.5c-4.142,0-7.5,3.357-7.5,7.5v98.734   c0,4.143,3.358,7.5,7.5,7.5h161.659l-25.334,110.829c-0.923,4.037,1.602,8.06,5.64,8.982c0.563,0.129,1.125,0.19,1.678,0.19   c3.42,0,6.51-2.355,7.305-5.831l0.382-1.671l48.286-211.234h50.769l48.285,211.234l0.382,1.671   c0.795,3.476,3.885,5.831,7.305,5.831c0.554,0,1.116-0.062,1.678-0.19c4.038-0.923,6.563-4.945,5.641-8.982l-25.334-110.829H457.5   c4.143,0,7.5-3.357,7.5-7.5v-98.734C465,229.656,461.643,226.299,457.5,226.299z M450,283.166v41.867h-19.728v-41.867l0,0   c0-4.143-3.357-7.5-7.5-7.5s-7.5,3.357-7.5,7.5l0,0v41.867h-19.727v-41.867l0,0c0-4.143-3.357-7.5-7.5-7.5s-7.5,3.357-7.5,7.5l0,0   v41.867h-19.728v-41.867l0,0c0-4.143-3.357-7.5-7.5-7.5s-7.5,3.357-7.5,7.5l0,0v41.867h-19.728v-41.867l0,0   c0-4.143-3.357-7.5-7.5-7.5s-7.5,3.357-7.5,7.5l0,0v41.867h-18.679l-9.57-41.867l-9.57-41.867H450V283.166z M172.588,325.033   h-18.679v-41.867l0,0c0-4.143-3.358-7.5-7.5-7.5s-7.5,3.357-7.5,7.5l0,0v41.867h-19.728v-41.867l0,0c0-4.143-3.358-7.5-7.5-7.5   s-7.5,3.357-7.5,7.5l0,0v41.867H84.455v-41.867l0,0c0-4.143-3.358-7.5-7.5-7.5c-4.142,0-7.5,3.357-7.5,7.5l0,0v41.867H49.727   v-41.867l0,0c0-4.143-3.358-7.5-7.5-7.5s-7.5,3.357-7.5,7.5l0,0v41.867H15v-41.867v-41.867h176.728l-9.57,41.867L172.588,325.033z    M49.727,142.565h365.545v83.733H261.363v-61.233c0-4.143-3.357-7.5-7.5-7.5h-42.727c-4.142,0-7.5,3.357-7.5,7.5v61.233H49.727   V142.565z M246.363,226.299h-27.727v-53.733h27.727V226.299z M228.5,23.968l89.085,103.598H139.416L228.5,23.968z"/></g><g transform="matrix(0.12903225421905518 0 0 0.12903225421905518 243 196)" id="L1_19"><path d="M174.49,68.041c-7.476-11.533-15.075-21.686-22.697-30.334   c-2.985,31.315,0.769,70.807,10.897,113.205c0.957,4.006-1.497,8.027-5.486,9.018c2.178,8.573,4.607,17.256,7.308,26.02   c1.759,1.246,3.513,2.505,5.264,3.777c7.568,5.499,14.987,11.182,22.187,16.987c-0.492-9.464-0.75-19.028-0.75-28.626   c0-29.472,2.375-58.23,6.782-84.639c-4.293-8.137-8.706-15.872-13.203-23.153C181.326,72.491,176.728,71.494,174.49,68.041z" fill="#ffdbf9"/><path d="M273.038,206.714c7.2-5.805,14.618-11.488,22.187-16.987c1.75-1.272,3.505-2.531,5.264-3.777   c2.701-8.763,5.13-17.446,7.308-26.019c-3.989-0.991-6.443-5.012-5.486-9.018c10.128-42.398,13.882-81.89,10.897-113.205   c-7.622,8.648-15.221,18.801-22.697,30.334c-2.239,3.454-6.835,4.45-10.303,2.254c-4.497,7.281-8.91,15.016-13.203,23.153   c4.407,26.409,6.782,55.167,6.782,84.639C273.787,187.686,273.53,197.25,273.038,206.714z" fill="#ffdbf9"/><path d="M304.041,201.862c-11.256,8.178-22.166,16.771-32.485,25.567   c-1.412,15.475-3.485,30.508-6.185,44.774h26.678l141.614-136.75C394.71,146.142,348.083,169.863,304.041,201.862z" fill="#fe4ce1"/><path d="M250.104,272.202c5.687-28.905,8.683-61.296,8.683-94.114c0-59.142-9.695-115.004-26.287-153.373   c-16.592,38.369-26.287,94.231-26.287,153.373c0,32.818,2.996,65.21,8.683,94.114H250.104z" fill="#fe4ce1"/><path d="M172.952,272.202h26.678c-2.701-14.265-4.773-29.299-6.185-44.774   c-10.319-8.795-21.229-17.388-32.485-25.567c-44.042-31.999-90.669-55.719-129.622-66.41L172.952,272.202z" fill="#fe4ce1"/><path d="M374.655,111.41c4.976-12.903,8.75-25.086,11.279-36.396c-20.002,11.816-41.565,29.315-63.159,51.31   c-1.646,9.194-3.604,18.569-5.874,28.074c-0.823,3.443-3.897,5.759-7.289,5.759c-0.577,0-1.163-0.067-1.749-0.207   c-0.023-0.005-0.044-0.014-0.066-0.019c-2.178,8.573-4.607,17.256-7.308,26.019c22.261-15.777,45.132-29.486,67.39-40.583   c4.068-8.26,7.732-16.376,10.986-24.3C375.061,119.544,373.176,115.244,374.655,111.41z" fill="#fe70e7"/><path d="M157.204,159.93c-0.023,0.006-0.044,0.014-0.066,0.019c-0.586,0.14-1.172,0.207-1.749,0.207   c-3.391,0-6.466-2.316-7.289-5.759c-2.27-9.504-4.228-18.88-5.874-28.074c-21.594-21.995-43.157-39.494-63.159-51.31   c2.53,11.311,6.304,23.494,11.279,36.396c1.479,3.834-0.406,8.134-4.21,9.657c3.255,7.924,6.919,16.04,10.987,24.3   c22.258,11.097,45.129,24.806,67.39,40.583C161.811,177.186,159.383,168.503,157.204,159.93z" fill="#fe70e7"/><path d="M256.145,287.202h-47.339c-0.012,0-0.025,0.002-0.037,0.002c-0.008,0-0.015-0.002-0.023-0.002   H177.93c0.721,5.274,2.202,10.308,4.311,15h16.535c4.142,0,7.5,3.358,7.5,7.5s-3.358,7.5-7.5,7.5h-6.568   c10.063,10.804,24.398,17.578,40.292,17.578s30.229-6.774,40.292-17.578h-44.016c-4.142,0-7.5-3.358-7.5-7.5s3.358-7.5,7.5-7.5   h53.983c2.109-4.692,3.59-9.726,4.311-15h-30.862C256.187,287.202,256.166,287.202,256.145,287.202z" fill="#4fc153"/><path d="M90.346,111.41c-4.976-12.903-8.75-25.086-11.279-36.396c20.002,11.816,41.565,29.315,63.159,51.31   c1.646,9.194,3.604,18.569,5.874,28.074c0.823,3.443,3.897,5.759,7.289,5.759c0.577,0,1.163-0.067,1.749-0.207   c0.023-0.005,0.044-0.014,0.066-0.019c3.989-0.991,6.443-5.012,5.486-9.018c-10.128-42.398-13.882-81.89-10.897-113.205   c7.622,8.648,15.221,18.801,22.697,30.334c2.239,3.453,6.836,4.45,10.303,2.254c0.023-0.015,0.047-0.026,0.07-0.041   c3.476-2.253,4.467-6.897,2.214-10.373c-11.541-17.804-23.461-32.599-35.428-43.972c-1.994-1.896-4.866-2.548-7.484-1.696   c-2.617,0.85-4.559,3.065-5.058,5.771c-4.209,22.802-4.346,50.87-0.58,81.804c-22.888-21.276-45.562-37.53-66.34-47.46   c-2.483-1.188-5.417-0.918-7.642,0.7c-2.227,1.617-3.388,4.324-3.027,7.052c2.175,16.429,7.166,34.842,14.834,54.726   c1.49,3.865,5.832,5.79,9.696,4.299c0.031-0.012,0.058-0.027,0.089-0.039C89.94,119.544,91.825,115.244,90.346,111.41z"/><path d="M290.511,68.041c7.476-11.533,15.075-21.686,22.697-30.334c2.985,31.315-0.769,70.807-10.897,113.205   c-0.957,4.006,1.497,8.027,5.486,9.018c0.023,0.006,0.044,0.014,0.066,0.019c0.586,0.14,1.172,0.207,1.749,0.207   c3.391,0,6.466-2.316,7.289-5.759c2.27-9.504,4.228-18.88,5.874-28.074c21.594-21.995,43.157-39.494,63.159-51.31   c-2.53,11.311-6.304,23.494-11.279,36.396c-1.479,3.834,0.407,8.134,4.21,9.657c0.03,0.012,0.058,0.028,0.089,0.039   c3.865,1.49,8.206-0.435,9.696-4.299c7.668-19.884,12.659-38.297,14.834-54.726c0.361-2.728-0.8-5.435-3.027-7.052   c-2.226-1.617-5.158-1.886-7.642-0.7c-20.778,9.93-43.453,26.184-66.34,47.46c3.765-30.934,3.629-59.002-0.58-81.804   c-0.5-2.706-2.441-4.921-5.058-5.771c-2.616-0.852-5.49-0.199-7.484,1.696c-11.967,11.373-23.887,26.167-35.428,43.972   c-2.253,3.476-1.262,8.12,2.214,10.373c0.023,0.015,0.047,0.026,0.07,0.041C283.676,72.491,288.272,71.495,290.511,68.041z"/><path d="M462.71,128.255c2.329-2.249,2.952-5.74,1.544-8.656c-1.408-2.916-4.527-4.6-7.738-4.174   c-25.832,3.42-56.599,13.969-88.638,29.942c-22.258,11.097-45.129,24.806-67.39,40.583c-1.759,1.246-3.514,2.505-5.264,3.777   c-7.568,5.499-14.987,11.182-22.187,16.987c0.492-9.464,0.75-19.028,0.75-28.626c0-29.472-2.375-58.23-6.782-84.639   c-5.907-35.397-15.47-66.568-27.911-89.522C237.783,1.507,235.252,0,232.5,0s-5.283,1.507-6.594,3.926   c-12.442,22.954-22.004,54.125-27.911,89.522c-4.407,26.409-6.782,55.167-6.782,84.639c0,9.598,0.257,19.162,0.75,28.626   c-7.2-5.805-14.618-11.488-22.187-16.987c-1.75-1.272-3.505-2.531-5.264-3.777c-22.261-15.777-45.132-29.486-67.39-40.583   c-32.039-15.973-62.806-26.522-88.638-29.942c-3.21-0.426-6.33,1.258-7.738,4.174c-1.408,2.916-0.785,6.407,1.544,8.656   l160.214,154.711c0.323,7.016,1.689,13.762,3.936,20.097c-2.388,1.255-4.018,3.755-4.018,6.64c0,4.142,3.358,7.5,7.5,7.5h3.423   c11.176,17.567,29.942,29.85,51.655,32.172V457.5c0,4.142,3.358,7.5,7.5,7.5s7.5-3.358,7.5-7.5V349.374   c21.713-2.321,40.479-14.604,51.655-32.172h3.423c4.142,0,7.5-3.358,7.5-7.5c0-2.885-1.631-5.385-4.018-6.64   c2.247-6.334,3.612-13.08,3.936-20.097L462.71,128.255z M282.759,302.202h-53.983c-4.142,0-7.5,3.358-7.5,7.5s3.358,7.5,7.5,7.5   h44.016c-10.063,10.804-24.398,17.578-40.292,17.578s-30.229-6.774-40.292-17.578h6.568c4.142,0,7.5-3.358,7.5-7.5   s-3.358-7.5-7.5-7.5h-16.535c-2.109-4.692-3.59-9.726-4.311-15h30.816c0.008,0,0.015,0.002,0.023,0.002   c0.012,0,0.025-0.002,0.037-0.002h47.339c0.021,0,0.042,0,0.063,0h30.862C286.349,292.476,284.868,297.51,282.759,302.202z    M232.5,24.715c16.592,38.369,26.287,94.231,26.287,153.373c0,32.819-2.996,65.209-8.683,94.114h-35.208   c-5.687-28.905-8.683-61.296-8.683-94.114C206.213,118.946,215.908,63.084,232.5,24.715z M193.445,227.428   c1.412,15.475,3.485,30.509,6.185,44.774h-26.678L31.338,135.452c38.953,10.69,85.58,34.411,129.622,66.41   C172.216,210.04,183.126,218.633,193.445,227.428z M265.37,272.202c2.701-14.265,4.773-29.299,6.185-44.774   c10.319-8.795,21.229-17.389,32.485-25.567c44.042-31.999,90.669-55.719,129.622-66.41l-141.614,136.75H265.37z"/></g><g transform="matrix(0.10036354624659904 0.039537154586291444 -0.039537154586291444 0.10036354624659904 83.85786304490881 229.4730861622833)" id="L1_20"><path d="M293.669,362.448V450H450v-80.071H316.17c-4.142,0-7.499-3.357-7.5-7.499h-15   C293.67,362.436,293.669,362.442,293.669,362.448z" fill="#fecc33"/><path d="M232.5,316.259c-22.904,0-41.956,16.767-45.55,38.669h91.101   C274.456,333.026,255.404,316.259,232.5,316.259z" fill="#e43017"/><path d="M148.83,369.929H15V450h156.331v-87.552c0-0.006-0.001-0.012-0.001-0.018h-15   C156.329,366.572,152.972,369.929,148.83,369.929z" fill="#fecc33"/><path d="M139.395,223.908C143.227,175.896,183.52,138,232.5,138s89.273,37.896,93.105,85.908h17.533   c0.959-7.805,3.403-15.153,7.023-21.769v-31.181c-4.142,0-7.5-3.358-7.5-7.5v-62.55H122.338v62.55c0,4.142-3.357,7.5-7.5,7.5   v31.181c3.62,6.616,6.064,13.965,7.023,21.769H139.395z" fill="#ffffff"/><path d="M310.54,85.908C306.751,46.18,273.203,15,232.5,15c-40.703,0-74.251,31.18-78.04,70.908H310.54z" fill="#fecc33"/><path d="M310.54,223.908C306.751,184.18,273.203,153,232.5,153c-40.703,0-74.251,31.18-78.04,70.908H310.54z   " fill="#fecc33"/><path d="M106.719,223.908c-3.594-21.902-22.646-38.669-45.55-38.669s-41.956,16.767-45.55,38.669H106.719z" fill="#fecc33"/><path d="M403.831,185.238c-22.904,0-41.956,16.767-45.55,38.669h91.101   C445.787,202.005,426.735,185.238,403.831,185.238z" fill="#fecc33"/><path d="M15,354.929h133.83c4.143,0,7.5,3.358,7.5,7.5h15c0-0.013,0.002-0.026,0.002-0.039   c0.021-33.711,27.453-61.13,61.168-61.13c33.715,0,61.147,27.419,61.168,61.13c0,0.013,0.002,0.026,0.002,0.039h15   c0-4.142,3.357-7.5,7.5-7.5H450V238.908H15V354.929z" fill="#ff9926"/><path d="M122.338,163.458v-62.55h220.324v62.55c0,4.142,3.357,7.5,7.5,7.5h0c4.143,0,7.5-3.358,7.5-7.5v-70.05   c0-4.142-3.357-7.5-7.5-7.5h-24.557C321.773,37.896,281.48,0,232.5,0s-89.273,37.896-93.105,85.908h-24.557   c-4.143,0-7.5,3.358-7.5,7.5v70.05c0,4.142,3.357,7.5,7.5,7.5h0C118.981,170.957,122.338,167.599,122.338,163.458z M232.5,15   c40.703,0,74.251,31.18,78.04,70.908H154.46C158.249,46.18,191.797,15,232.5,15z"/><path d="M457.5,94.68c-4.143,0-7.5,3.358-7.5,7.5v89.17c-11.224-12.919-27.752-21.112-46.169-21.112   c-23.129,0-43.28,12.913-53.669,31.9c-3.62,6.616-6.064,13.965-7.023,21.769h-17.533C321.773,175.896,281.48,138,232.5,138   s-89.273,37.896-93.105,85.908h-17.533c-0.959-7.805-3.403-15.153-7.023-21.769c-10.389-18.987-30.541-31.9-53.669-31.9   c-18.417,0-34.945,8.193-46.169,21.112v-89.17c0-4.142-3.357-7.5-7.5-7.5S0,98.038,0,102.18v129.228V457.5   c0,4.142,3.357,7.5,7.5,7.5h171.331c4.143,0,7.5-3.358,7.5-7.5v-87.571h92.338V457.5c0,4.142,3.357,7.5,7.5,7.5H457.5   c4.143,0,7.5-3.358,7.5-7.5V231.408V102.18C465,98.038,461.643,94.68,457.5,94.68z M450,354.929H316.17c-4.143,0-7.5,3.358-7.5,7.5   v0v0.001c0.001,4.142,3.358,7.499,7.5,7.499H450V450H293.669v-87.552c0-0.006,0.001-0.012,0.001-0.018v-0.001v0   c0-0.013-0.002-0.026-0.002-0.039c-0.021-33.711-27.453-61.13-61.168-61.13c-33.715,0-61.147,27.419-61.168,61.13   c0,0.013-0.002,0.026-0.002,0.039v0v0.001c0,0.006,0.001,0.012,0.001,0.018V450H15v-80.071h133.83c4.142,0,7.499-3.357,7.5-7.499   v-0.001v0c0-4.142-3.357-7.5-7.5-7.5H15V238.908h435V354.929z M232.5,316.259c22.904,0,41.956,16.767,45.55,38.669H186.95   C190.544,333.026,209.596,316.259,232.5,316.259z M61.169,185.238c22.904,0,41.956,16.767,45.55,38.669H15.619   C19.213,202.005,38.265,185.238,61.169,185.238z M358.281,223.908c3.594-21.902,22.646-38.669,45.55-38.669   s41.956,16.767,45.55,38.669H358.281z M232.5,153c40.703,0,74.251,31.18,78.04,70.908H154.46C158.249,184.18,191.797,153,232.5,153   z"/></g><g transform="matrix(0.07294031638310054 0.04973203334045668 -0.04973203334045668 0.07294031638310054 129.5673214047975 -13.562774467370549)" id="L1_21"><path d="M286.297,81.446c-33.374-14.856-69.79-23.271-108.237-25.01   c-38.444-1.738-75.473,3.353-110.052,15.134C49.976,77.714,31.307,86.538,15,96.593v31.042   c13.957-8.729,28.989-16.269,44.854-22.487c35.764-14.019,74.364-21.127,114.73-21.127s78.967,7.108,114.73,21.127   c2.426,0.951,5.228,2.054,8.348,3.283c34.104,13.429,119.94,47.228,152.338,52.827v-15.015   c-20.933-3.991-63.987-20.57-133.692-51.424c-3.787-1.677-5.499-6.106-3.822-9.894c0.003-0.006,0.006-0.011,0.008-0.017   l-16.297-7.262C294.511,81.429,290.079,83.128,286.297,81.446z" fill="#0c80e4"/><path d="M83.767,287.791v51.563c0,12.604-8.007,23.375-19.2,27.491l15.221,41.597   c13.179-2.398,23.202-13.961,23.202-27.822l0.001-107.856c-9.175-2.465-18.102-5.402-26.723-8.775v16.303   C80.409,280.291,83.767,283.649,83.767,287.791z" fill="#fecc33"/><path d="M174.584,153.929c-31.206,0-56.595,25.388-56.595,56.594s25.389,56.594,56.595,56.594   s56.594-25.388,56.594-56.594S205.79,153.929,174.584,153.929z M174.584,243.023c-17.921,0-32.5-14.58-32.5-32.5   s14.579-32.5,32.5-32.5s32.5,14.58,32.5,32.5S192.505,243.023,174.584,243.023z" fill="#00e4c5"/><path d="M334.5,329.933c-8.723,0-15.818,7.096-15.818,15.818s7.096,15.818,15.818,15.818   s15.818-7.096,15.818-15.818S343.223,329.933,334.5,329.933z" fill="#fecc33"/><path d="M457.839,132.185c-10.189-0.461-41.962-9.698-135.46-51.083c-3.777-1.672-8.202,0.03-9.885,3.806   c-0.003,0.006-0.006,0.011-0.008,0.017c-1.677,3.788,0.035,8.217,3.822,9.894c69.705,30.854,112.76,47.433,133.692,51.424v15.015   c-32.397-5.599-118.233-39.397-152.338-52.827c-3.12-1.229-5.922-2.332-8.348-3.283c-35.764-14.019-74.364-21.127-114.73-21.127   s-78.967,7.108-114.73,21.127C43.989,111.367,28.957,118.906,15,127.635V96.593C31.307,86.538,49.976,77.714,68.008,71.57   c34.579-11.782,71.607-16.872,110.052-15.134c38.447,1.739,74.863,10.154,108.237,25.01c3.782,1.682,8.215-0.017,9.9-3.8   c0-0.001,0.001-0.002,0.001-0.003c1.685-3.784-0.018-8.217-3.802-9.902c-35.093-15.621-73.333-24.466-113.659-26.29   c-40.322-1.826-79.208,3.532-115.567,15.92C46.951,62.898,30.246,70.479,15,79.165V62.447c0-4.142-3.357-7.5-7.5-7.5   S0,58.305,0,62.447v79.18c0,2.802,1.563,5.371,4.051,6.66c2.489,1.289,5.489,1.082,7.777-0.534   c16.175-11.428,34.175-21.063,53.5-28.639c34.012-13.332,70.771-20.092,109.256-20.092s75.244,6.76,109.256,20.093   c2.42,0.948,5.214,2.049,8.326,3.274c68.643,27.03,141.966,54.661,165.334,54.661c4.143,0,7.5-3.358,7.5-7.5v-29.872   C465,135.667,461.845,132.366,457.839,132.185z"/><path d="M457.5,203.023c-36.429,0-75.155-13.487-116.154-27.767c-48.893-17.028-104.308-36.328-166.762-36.328   c-68.402,0-132.893,24.831-172.512,66.421c-2.759,2.896-2.759,7.449,0,10.346c19.524,20.496,45.097,36.906,74.195,48.292   c8.621,3.373,17.548,6.31,26.723,8.775l-0.001,107.856c0,13.86-10.023,25.424-23.202,27.822l-15.221-41.597   c11.193-4.116,19.2-14.886,19.2-27.491v-51.563c0-4.142-3.357-7.5-7.5-7.5h0c-4.143,0-7.5,3.358-7.5,7.5v51.563   c0,7.873-6.405,14.278-14.277,14.278c-2.449,0-4.744,1.196-6.147,3.204c-1.403,2.007-1.737,4.574-0.896,6.874l20.223,55.266   c1.082,2.957,3.895,4.923,7.043,4.923c23.863,0,43.277-19.415,43.277-43.278l0.001-103.044   c57.607,21.005,98.832,55.875,132.296,84.198c31.792,26.907,56.903,48.16,84.214,48.16c26.191,0,47.5-21.309,47.5-47.5   c0-25.66-20.456-46.62-45.916-47.46c-0.525-0.027-1.053-0.04-1.584-0.04c-16.993,0-30.818,13.825-30.818,30.818   s13.825,30.818,30.818,30.818c15.238,0,27.92-11.119,30.38-25.667c1.366,3.586,2.12,7.471,2.12,11.531   c0,17.92-14.579,32.5-32.5,32.5c-21.814,0-45.075-19.686-74.523-44.609c-25.91-21.929-56.345-47.677-95.453-68.403   c3.344,0.119,6.696,0.197,10.061,0.197c68.401,0,132.892-24.831,172.511-66.421c2.856-2.999,2.741-7.746-0.258-10.604   c-2.999-2.856-7.746-2.741-10.604,0.258c-27.254,28.61-67.42,48.678-112.537,57.193c13.827-13.061,22.482-31.544,22.482-52.02   c0-20.881-8.989-39.698-23.296-52.797c40.335,6.208,77.377,19.105,113.531,31.696c42.231,14.708,82.121,28.601,121.088,28.601   c4.143,0,7.5-3.358,7.5-7.5S461.643,203.023,457.5,203.023z M334.5,361.569c-8.723,0-15.818-7.096-15.818-15.818   s7.096-15.818,15.818-15.818s15.818,7.096,15.818,15.818S343.223,361.569,334.5,361.569z M18.098,210.523   c27.041-25.861,65.028-44.032,107.377-52.024c-13.829,13.062-22.485,31.545-22.485,52.024s8.656,38.962,22.485,52.024   C83.125,254.555,45.139,236.384,18.098,210.523z M231.178,210.523c0,31.206-25.388,56.594-56.594,56.594   s-56.595-25.388-56.595-56.594s25.389-56.594,56.595-56.594S231.178,179.317,231.178,210.523z"/><path d="M174.584,178.023c-17.921,0-32.5,14.58-32.5,32.5s14.579,32.5,32.5,32.5s32.5-14.58,32.5-32.5   S192.505,178.023,174.584,178.023z"/></g></defs><g fi:class="KUsePattern" opacity="0.3"><pattern id="pattern_L1_12" width="350" height="350" patternUnits="userSpaceOnUse"><use xlink:href="#L1_12" x="-350" y="-350"/><use xlink:href="#L1_12" x="0" y="-350"/><use xlink:href="#L1_12" x="350" y="-350"/><use xlink:href="#L1_12" x="-350" y="0"/><use xlink:href="#L1_12" x="0" y="0"/><use xlink:href="#L1_12" x="350" y="0"/><use xlink:href="#L1_12" x="-350" y="350"/><use xlink:href="#L1_12" x="0" y="350"/><use xlink:href="#L1_12" x="350" y="350"/></pattern><rect x="0" y="0" width="100%" height="100%" fill="url(#pattern_L1_12)"/></g><g fi:class="KUsePattern" opacity="0.3"><pattern id="pattern_L1_13" width="350" height="350" patternUnits="userSpaceOnUse"><use xlink:href="#L1_13" x="-350" y="-350"/><use xlink:href="#L1_13" x="0" y="-350"/><use xlink:href="#L1_13" x="350" y="-350"/><use xlink:href="#L1_13" x="-350" y="0"/><use xlink:href="#L1_13" x="0" y="0"/><use xlink:href="#L1_13" x="350" y="0"/><use xlink:href="#L1_13" x="-350" y="350"/><use xlink:href="#L1_13" x="0" y="350"/><use xlink:href="#L1_13" x="350" y="350"/></pattern><rect x="0" y="0" width="100%" height="100%" fill="url(#pattern_L1_13)"/></g><g fi:class="KUsePattern" opacity="0.3"><pattern id="pattern_L1_14" width="350" height="350" patternUnits="userSpaceOnUse"><use xlink:href="#L1_14" x="-350" y="-350"/><use xlink:href="#L1_14" x="0" y="-350"/><use xlink:href="#L1_14" x="350" y="-350"/><use xlink:href="#L1_14" x="-350" y="0"/><use xlink:href="#L1_14" x="0" y="0"/><use xlink:href="#L1_14" x="350" y="0"/><use xlink:href="#L1_14" x="-350" y="350"/><use xlink:href="#L1_14" x="0" y="350"/><use xlink:href="#L1_14" x="350" y="350"/></pattern><rect x="0" y="0" width="100%" height="100%" fill="url(#pattern_L1_14)"/></g><g fi:class="KUsePattern" opacity="0.3"><pattern id="pattern_L1_15" width="350" height="350" patternUnits="userSpaceOnUse"><use xlink:href="#L1_15" x="-350" y="-350"/><use xlink:href="#L1_15" x="0" y="-350"/><use xlink:href="#L1_15" x="350" y="-350"/><use xlink:href="#L1_15" x="-350" y="0"/><use xlink:href="#L1_15" x="0" y="0"/><use xlink:href="#L1_15" x="350" y="0"/><use xlink:href="#L1_15" x="-350" y="350"/><use xlink:href="#L1_15" x="0" y="350"/><use xlink:href="#L1_15" x="350" y="350"/></pattern><rect x="0" y="0" width="100%" height="100%" fill="url(#pattern_L1_15)"/></g><g fi:class="KUsePattern" opacity="0.3"><pattern id="pattern_L1_16" width="350" height="350" patternUnits="userSpaceOnUse"><use xlink:href="#L1_16" x="-350" y="-350"/><use xlink:href="#L1_16" x="0" y="-350"/><use xlink:href="#L1_16" x="350" y="-350"/><use xlink:href="#L1_16" x="-350" y="0"/><use xlink:href="#L1_16" x="0" y="0"/><use xlink:href="#L1_16" x="350" y="0"/><use xlink:href="#L1_16" x="-350" y="350"/><use xlink:href="#L1_16" x="0" y="350"/><use xlink:href="#L1_16" x="350" y="350"/></pattern><rect x="0" y="0" width="100%" height="100%" fill="url(#pattern_L1_16)"/></g><g fi:class="KUsePattern" opacity="0.3"><pattern id="pattern_L1_17" width="350" height="350" patternUnits="userSpaceOnUse"><use xlink:href="#L1_17" x="-350" y="-350"/><use xlink:href="#L1_17" x="0" y="-350"/><use xlink:href="#L1_17" x="350" y="-350"/><use xlink:href="#L1_17" x="-350" y="0"/><use xlink:href="#L1_17" x="0" y="0"/><use xlink:href="#L1_17" x="350" y="0"/><use xlink:href="#L1_17" x="-350" y="350"/><use xlink:href="#L1_17" x="0" y="350"/><use xlink:href="#L1_17" x="350" y="350"/></pattern><rect x="0" y="0" width="100%" height="100%" fill="url(#pattern_L1_17)"/></g><g fi:class="KUsePattern" opacity="0.3"><pattern id="pattern_L1_18" width="350" height="350" patternUnits="userSpaceOnUse"><use xlink:href="#L1_18" x="-350" y="-350"/><use xlink:href="#L1_18" x="0" y="-350"/><use xlink:href="#L1_18" x="350" y="-350"/><use xlink:href="#L1_18" x="-350" y="0"/><use xlink:href="#L1_18" x="0" y="0"/><use xlink:href="#L1_18" x="350" y="0"/><use xlink:href="#L1_18" x="-350" y="350"/><use xlink:href="#L1_18" x="0" y="350"/><use xlink:href="#L1_18" x="350" y="350"/></pattern><rect x="0" y="0" width="100%" height="100%" fill="url(#pattern_L1_18)"/></g><g fi:class="KUsePattern" opacity="0.3"><pattern id="pattern_L1_19" width="350" height="350" patternUnits="userSpaceOnUse"><use xlink:href="#L1_19" x="-350" y="-350"/><use xlink:href="#L1_19" x="0" y="-350"/><use xlink:href="#L1_19" x="350" y="-350"/><use xlink:href="#L1_19" x="-350" y="0"/><use xlink:href="#L1_19" x="0" y="0"/><use xlink:href="#L1_19" x="350" y="0"/><use xlink:href="#L1_19" x="-350" y="350"/><use xlink:href="#L1_19" x="0" y="350"/><use xlink:href="#L1_19" x="350" y="350"/></pattern><rect x="0" y="0" width="100%" height="100%" fill="url(#pattern_L1_19)"/></g><g fi:class="KUsePattern" opacity="0.3"><pattern id="pattern_L1_20" width="350" height="350" patternUnits="userSpaceOnUse"><use xlink:href="#L1_20" x="-350" y="-350"/><use xlink:href="#L1_20" x="0" y="-350"/><use xlink:href="#L1_20" x="350" y="-350"/><use xlink:href="#L1_20" x="-350" y="0"/><use xlink:href="#L1_20" x="0" y="0"/><use xlink:href="#L1_20" x="350" y="0"/><use xlink:href="#L1_20" x="-350" y="350"/><use xlink:href="#L1_20" x="0" y="350"/><use xlink:href="#L1_20" x="350" y="350"/></pattern><rect x="0" y="0" width="100%" height="100%" fill="url(#pattern_L1_20)"/></g><g fi:class="KUsePattern" opacity="0.3"><pattern id="pattern_L1_21" width="350" height="350" patternUnits="userSpaceOnUse"><use xlink:href="#L1_21" x="-350" y="-350"/><use xlink:href="#L1_21" x="0" y="-350"/><use xlink:href="#L1_21" x="350" y="-350"/><use xlink:href="#L1_21" x="-350" y="0"/><use xlink:href="#L1_21" x="0" y="0"/><use xlink:href="#L1_21" x="350" y="0"/><use xlink:href="#L1_21" x="-350" y="350"/><use xlink:href="#L1_21" x="0" y="350"/><use xlink:href="#L1_21" x="350" y="350"/></pattern><rect x="0" y="0" width="100%" height="100%" fill="url(#pattern_L1_21)"/></g></svg>